<svg width="112" height="35" viewBox="0 0 112 35" fill="none" xmlns="http://www.w3.org/2000/svg">
<path d="M26 7H23V6C23 5.73478 22.8946 5.48043 22.7071 5.29289C22.5196 5.10536 22.2652 5 22 5C21.7348 5 21.4804 5.10536 21.2929 5.29289C21.1054 5.48043 21 5.73478 21 6V7H11V6C11 5.73478 10.8946 5.48043 10.7071 5.29289C10.5196 5.10536 10.2652 5 10 5C9.73478 5 9.48043 5.10536 9.29289 5.29289C9.10536 5.48043 9 5.73478 9 6V7H6C5.46957 7 4.96086 7.21071 4.58579 7.58579C4.21071 7.96086 4 8.46957 4 9V29C4 29.5304 4.21071 30.0391 4.58579 30.4142C4.96086 30.7893 5.46957 31 6 31H26C26.5304 31 27.0391 30.7893 27.4142 30.4142C27.7893 30.0391 28 29.5304 28 29V9C28 8.46957 27.7893 7.96086 27.4142 7.58579C27.0391 7.21071 26.5304 7 26 7ZM26 29H6V9H9V10C9 10.2652 9.10536 10.5196 9.29289 10.7071C9.48043 10.8946 9.73478 11 10 11C10.2652 11 10.5196 10.8946 10.7071 10.7071C10.8946 10.5196 11 10.2652 11 10V9H21V10C21 10.2652 21.1054 10.5196 21.2929 10.7071C21.4804 10.8946 21.7348 11 22 11C22.2652 11 22.5196 10.8946 22.7071 10.7071C22.8946 10.5196 23 10.2652 23 10V9H26V29Z" fill="#C7FF43"/>
<g clip-path="url(#clip0_41_227)">
<path d="M29.488 16.5111C27.8088 14.8339 25.6699 13.692 23.3417 13.2298C21.0135 12.7676 18.6005 13.0059 16.4077 13.9144C14.2149 14.823 12.3408 16.3611 11.0223 18.3342C9.70375 20.3074 9 22.6271 9 25C9 27.3729 9.70375 29.6926 11.0223 31.6658C12.3408 33.6389 14.2149 35.177 16.4077 36.0856C18.6005 36.9941 21.0135 37.2324 23.3417 36.7702C25.6699 36.308 27.8088 35.1661 29.488 33.4889C31.7369 31.2358 33 28.1829 33 25C33 21.8171 31.7369 18.7642 29.488 16.5111ZM14.3922 18.4C15.783 17.0061 17.5814 16.0909 19.5271 15.7867C19.2157 17.729 18.2989 19.5235 16.9075 20.9145C15.5161 22.3055 13.721 23.222 11.7781 23.5333C12.0819 21.5874 12.9975 19.7887 14.3922 18.3978V18.4ZM11.7425 26.23C14.413 25.9141 16.8983 24.7049 18.7947 22.7989C20.7013 20.9031 21.9108 18.4186 22.2268 15.7489C24.261 16.0164 26.1499 16.9475 27.6007 18.3978C29.0514 19.8481 29.9828 21.7365 30.2504 23.77C27.5822 24.093 25.0993 25.3009 23.1986 27.2008C21.298 29.1006 20.0894 31.5826 19.7661 34.25C17.732 33.9829 15.8429 33.0521 14.3921 31.6019C12.9413 30.1518 12.0099 28.2635 11.7425 26.23ZM27.6007 31.6022C26.2096 32.9957 24.4114 33.9109 22.4658 34.2156C22.7773 32.2732 23.694 30.4787 25.0854 29.0877C26.4768 27.6967 28.2719 26.7803 30.2148 26.4689C29.9106 28.414 28.995 30.2119 27.6007 31.6022Z" fill="#C7FF43"/>
</g>
<path d="M36.7969 25V12.6364H42.1335C43.0511 12.6364 43.854 12.8034 44.5423 13.1374C45.2305 13.4715 45.7657 13.9524 46.1481 14.5803C46.5304 15.2081 46.7216 15.9607 46.7216 16.8381C46.7216 17.7235 46.5244 18.4701 46.13 19.0778C45.7396 19.6855 45.1902 20.1443 44.4819 20.4542C43.7776 20.7641 42.9545 20.919 42.0128 20.919H38.8253V18.3111H41.3366C41.7311 18.3111 42.0671 18.2628 42.3448 18.1662C42.6265 18.0656 42.8419 17.9066 42.9908 17.6893C43.1437 17.4719 43.2202 17.1882 43.2202 16.8381C43.2202 16.4839 43.1437 16.1961 42.9908 15.9748C42.8419 15.7494 42.6265 15.5844 42.3448 15.4798C42.0671 15.3711 41.7311 15.3168 41.3366 15.3168H40.1534V25H36.7969ZM44.0412 19.3253L47.1321 25H43.4858L40.4673 19.3253H44.0412ZM52.2257 25.1751C51.2558 25.1751 50.4187 24.9839 49.7143 24.6016C49.0141 24.2152 48.4748 23.6658 48.0964 22.9535C47.7222 22.2371 47.535 21.3859 47.535 20.3999C47.535 19.442 47.7242 18.6049 48.1025 17.8885C48.4808 17.1681 49.0141 16.6087 49.7023 16.2102C50.3905 15.8078 51.2014 15.6065 52.1352 15.6065C52.7952 15.6065 53.3989 15.7092 53.9462 15.9144C54.4936 16.1197 54.9665 16.4235 55.3649 16.826C55.7634 17.2285 56.0732 17.7255 56.2946 18.3171C56.516 18.9047 56.6266 19.5788 56.6266 20.3395V21.076H48.5673V19.3615H53.8798C53.8758 19.0476 53.8014 18.7679 53.6565 18.5224C53.5116 18.2769 53.3124 18.0857 53.0588 17.9489C52.8093 17.808 52.5215 17.7376 52.1955 17.7376C51.8655 17.7376 51.5697 17.812 51.3081 17.9609C51.0465 18.1058 50.8392 18.305 50.6863 18.5586C50.5334 18.8081 50.4529 19.0919 50.4448 19.4098V21.1545C50.4448 21.5328 50.5193 21.8648 50.6682 22.1506C50.8171 22.4323 51.0284 22.6516 51.3021 22.8086C51.5757 22.9656 51.9017 23.044 52.28 23.044C52.5416 23.044 52.7791 23.0078 52.9924 22.9354C53.2057 22.8629 53.3888 22.7563 53.5418 22.6154C53.6947 22.4746 53.8094 22.3015 53.8859 22.0962L56.5964 22.1747C56.4838 22.7824 56.2362 23.3117 55.8539 23.7624C55.4756 24.2092 54.9786 24.5573 54.3628 24.8068C53.747 25.0523 53.0347 25.1751 52.2257 25.1751ZM65.8299 18.5586L63.1193 18.631C63.0911 18.4379 63.0147 18.2668 62.8899 18.1179C62.7651 17.965 62.6021 17.8462 62.4009 17.7617C62.2037 17.6732 61.9743 17.6289 61.7127 17.6289C61.3706 17.6289 61.0788 17.6973 60.8373 17.8342C60.5999 17.971 60.4832 18.1561 60.4872 18.3896C60.4832 18.5707 60.5556 18.7276 60.7045 18.8604C60.8575 18.9933 61.1291 19.0999 61.5195 19.1804L63.3064 19.5185C64.2321 19.6955 64.9203 19.9893 65.3711 20.3999C65.8259 20.8104 66.0553 21.3537 66.0593 22.0298C66.0553 22.6657 65.8661 23.2191 65.4918 23.69C65.1216 24.1609 64.6144 24.5271 63.9705 24.7887C63.3266 25.0463 62.5901 25.1751 61.761 25.1751C60.4369 25.1751 59.3925 24.9034 58.6278 24.3601C57.8672 23.8127 57.4325 23.0803 57.3238 22.1626L60.2397 22.0902C60.3041 22.4283 60.4711 22.6858 60.7408 22.8629C61.0104 23.04 61.3545 23.1286 61.7731 23.1286C62.1514 23.1286 62.4593 23.0581 62.6967 22.9173C62.9342 22.7764 63.0549 22.5893 63.0589 22.3558C63.0549 22.1465 62.9623 21.9795 62.7812 21.8548C62.6001 21.726 62.3164 21.6254 61.93 21.5529L60.3121 21.245C59.3824 21.076 58.6902 20.7641 58.2354 20.3093C57.7806 19.8505 57.5553 19.2669 57.5593 18.5586C57.5553 17.9388 57.7203 17.4096 58.0543 16.9709C58.3884 16.5282 58.8633 16.1901 59.479 15.9567C60.0948 15.7232 60.8212 15.6065 61.6584 15.6065C62.914 15.6065 63.9041 15.8701 64.6285 16.3974C65.353 16.9206 65.7534 17.641 65.8299 18.5586ZM71.4291 25.1811C70.4752 25.1811 69.6542 24.9879 68.966 24.6016C68.2818 24.2112 67.7546 23.6598 67.3843 22.9474C67.0141 22.2311 66.8289 21.3839 66.8289 20.4059C66.8289 19.4521 67.0141 18.6149 67.3843 17.8945C67.7546 17.1741 68.2758 16.6127 68.9479 16.2102C69.624 15.8078 70.4169 15.6065 71.3265 15.6065C71.9382 15.6065 72.5077 15.7051 73.0349 15.9023C73.5662 16.0955 74.029 16.3873 74.4234 16.7777C74.8218 17.1681 75.1317 17.6591 75.3531 18.2507C75.5744 18.8383 75.6851 19.5265 75.6851 20.3153V21.0217H67.8552V19.4279H73.2643C73.2643 19.0576 73.1838 18.7296 73.0228 18.4439C72.8618 18.1581 72.6385 17.9348 72.3527 17.7738C72.071 17.6088 71.743 17.5263 71.3687 17.5263C70.9783 17.5263 70.6322 17.6168 70.3304 17.7979C70.0325 17.975 69.7991 18.2145 69.6301 18.5163C69.461 18.8142 69.3745 19.1462 69.3705 19.5124V21.0277C69.3705 21.4865 69.455 21.8829 69.624 22.217C69.7971 22.551 70.0406 22.8086 70.3545 22.9897C70.6684 23.1708 71.0407 23.2614 71.4713 23.2614C71.7571 23.2614 72.0187 23.2211 72.2561 23.1406C72.4936 23.0601 72.6968 22.9394 72.8659 22.7784C73.0349 22.6174 73.1637 22.4202 73.2522 22.1868L75.6308 22.3438C75.51 22.9152 75.2625 23.4143 74.8882 23.8409C74.518 24.2635 74.0391 24.5935 73.4515 24.831C72.8679 25.0644 72.1938 25.1811 71.4291 25.1811ZM77.1505 25V15.7273H78.8952V17.2003H78.9918C79.1608 16.7012 79.4587 16.3088 79.8853 16.0231C80.3159 15.7333 80.8029 15.5884 81.3462 15.5884C81.4589 15.5884 81.5917 15.5924 81.7446 15.6005C81.9016 15.6085 82.0244 15.6186 82.1129 15.6307V17.3572C82.0404 17.3371 81.9117 17.315 81.7265 17.2908C81.5414 17.2627 81.3563 17.2486 81.1711 17.2486C80.7445 17.2486 80.3642 17.3391 80.0302 17.5202C79.7001 17.6973 79.4385 17.9448 79.2453 18.2628C79.0522 18.5767 78.9556 18.9349 78.9556 19.3374V25H77.1505ZM91.4897 15.7273L88.1271 25H86.1953L82.8267 15.7273H84.7646L87.1129 22.8629H87.2095L89.5518 15.7273H91.4897ZM96.7644 25.1932C95.871 25.1932 95.1002 24.996 94.4523 24.6016C93.8083 24.2031 93.3113 23.6477 92.9611 22.9354C92.615 22.219 92.442 21.3859 92.442 20.4361C92.442 19.4863 92.615 18.6491 92.9611 17.9247C93.3113 17.1963 93.7983 16.6288 94.4221 16.2223C95.0499 15.8118 95.7824 15.6065 96.6195 15.6065C97.1025 15.6065 97.5794 15.687 98.0503 15.848C98.5212 16.009 98.9498 16.2706 99.3361 16.6328C99.7225 16.991 100.03 17.4659 100.26 18.0575C100.489 18.6491 100.604 19.3776 100.604 20.2429V20.8466H93.4562V19.6151H99.155C99.155 19.0919 99.0504 18.625 98.8411 18.2145C98.6359 17.804 98.3421 17.48 97.9597 17.2425C97.5814 17.0051 97.1347 16.8864 96.6195 16.8864C96.0521 16.8864 95.5611 17.0272 95.1465 17.3089C94.736 17.5866 94.4201 17.9489 94.1987 18.3956C93.9774 18.8423 93.8667 19.3213 93.8667 19.8324V20.6534C93.8667 21.3537 93.9874 21.9473 94.2289 22.4343C94.4744 22.9173 94.8145 23.2855 95.2491 23.5391C95.6838 23.7886 96.1889 23.9134 96.7644 23.9134C97.1387 23.9134 97.4768 23.861 97.7786 23.7564C98.0845 23.6477 98.3481 23.4867 98.5695 23.2734C98.7908 23.0561 98.9619 22.7865 99.0826 22.4645L100.459 22.8509C100.314 23.3177 100.071 23.7282 99.7285 24.0824C99.3865 24.4325 98.9639 24.7062 98.4608 24.9034C97.9577 25.0966 97.3923 25.1932 96.7644 25.1932ZM102.486 25V15.7273H103.53V17.152H103.609C103.794 16.6851 104.116 16.3088 104.575 16.0231C105.037 15.7333 105.561 15.5884 106.144 15.5884C106.233 15.5884 106.331 15.5904 106.44 15.5945C106.549 15.5985 106.639 15.6025 106.712 15.6065V16.6992C106.663 16.6912 106.579 16.6791 106.458 16.663C106.337 16.6469 106.207 16.6388 106.066 16.6388C105.583 16.6388 105.152 16.7415 104.774 16.9467C104.4 17.148 104.104 17.4277 103.886 17.7859C103.669 18.1441 103.56 18.5526 103.56 19.0114V25H102.486Z" fill="#C7FF43"/>
<defs>
<clipPath id="clip0_41_227">
<rect width="18" height="18" fill="white" transform="translate(8 12)"/>
</clipPath>
</defs>
</svg>

